<?xml version="1.0" encoding="UTF-8"?>
<svg id="Layer_5" data-name="Layer 5" xmlns="http://www.w3.org/2000/svg" viewBox="0 0 1081 1080">
  <defs>
    <style>
      .cls-1 {
        fill: #344e41;
      }
    </style>
  </defs>
  <path class="cls-1" d="m1070.9,351.53c-5.9-48.48-15.58-96.02-33.3-141.72-18.82-48.55-46.89-90.4-88.13-122.78-42.52-33.37-91.81-51.66-143.7-64.02-37.61-8.96-75.83-14.6-114.3-17.28-42.28-2.94-84.68-4.81-127.06-5.44-82.54-1.23-164.93.99-246.64,14.71-36.89,6.19-73.06,14.94-107.87,28.63-38.85,15.28-73.84,36.73-103.16,66.9-37.1,38.17-59.42,84.47-74.34,134.77-13.91,46.88-21.62,95.01-25.11,143.63-3.59,50.06-5.01,100.28-7.38,150.43,1.79,84.56,4.56,168.83,21.89,251.93,7.38,35.37,17.65,69.8,33.25,102.48,26.17,54.81,65.52,97.1,119.42,125.6,33.38,17.65,68.87,29.11,105.52,37.64,37.06,8.62,74.59,14.45,112.44,16.82,48.19,3.02,96.5,4.83,144.79,5.45,76.21.98,152.25-2.25,227.65-14.8,38.76-6.45,76.64-15.93,113.04-30.88,60.3-24.77,107.9-64.18,139.83-121.63,19.3-34.72,32.38-71.78,40.29-110.54,5.81-28.47,10.93-57.17,14.44-86,3.38-27.81,4.94-55.9,6.18-83.92,4.14-93.5,3.6-186.9-7.73-280Zm-164.84,18.44l-426.22,437.81c-8.7,8.94-22.82,8.94-31.53.01l-273.46-280.5c-8.65-8.87-8.72-23.23-.16-32.18l62.88-65.8c8.66-9.06,22.86-9.16,31.63-.21l179.11,182.67c8.71,8.89,22.79,8.86,31.48-.05l331.44-340.04c8.75-8.98,22.96-8.92,31.65.13l63.29,65.96c8.59,8.95,8.54,23.32-.11,32.21Z"/>
</svg>