<?xml version="1.0" encoding="UTF-8"?>
<svg id="Layer_5" data-name="Layer 5" xmlns="http://www.w3.org/2000/svg" viewBox="0 0 1081 1080">
  <defs>
    <style>
      .cls-1 {
        fill: #344e41;
      }
    </style>
  </defs>
  <path class="cls-1" d="m1.29,1064.16V90.32c0-49.33,39.99-89.32,89.32-89.32h956.13c18.14,0,32.85,14.71,32.85,32.85h0c0,243.04.65,486.08-1.09,729.1-.16,22.14-9.95,49.58-24.96,65.33-75.32,79.01-153.44,155.36-231.77,231.44-10.3,10.01-27.37,18.43-41.34,18.49-254.81,1.08-509.62.77-764.44.69h0c-8.13-.02-14.7-6.61-14.7-14.74ZM831.69,284.2H273.41c-8.35,0-15.11,6.77-15.11,15.11v17.4c0,8.35,6.77,15.11,15.11,15.11h558.27c8.35,0,15.11-6.77,15.11-15.11v-17.4c0-8.35-6.77-15.11-15.11-15.11Zm14.49,186.74v-17.31c0-8.35-6.77-15.11-15.11-15.11H273.5c-8.35,0-15.11,6.77-15.11,15.11v17.31c0,8.35,6.77,15.11,15.11,15.11h557.56c8.35,0,15.11-6.77,15.11-15.11Zm-14.5,121.74H273.4c-8.35,0-15.11,6.77-15.11,15.11v17.4c0,8.35,6.77,15.11,15.11,15.11h558.27c8.35,0,15.11-6.77,15.11-15.11v-17.4c0-8.35-6.77-15.11-15.11-15.11Zm-8.1,383.28l152.05-151.49c9.7-9.67,3.02-25.83-10.35-25.83h-152.36c-8.35,0-15.11,6.77-15.11,15.11v151.51c0,13.45,16.25,20.2,25.77,10.7Z"/>
</svg>