<?xml version="1.0" encoding="UTF-8"?>
<svg id="Layer_5" data-name="Layer 5" xmlns="http://www.w3.org/2000/svg" viewBox="0 0 1081 1080">
  <defs>
    <style>
      .cls-1 {
        fill: #344e41;
      }
    </style>
  </defs>
  <path class="cls-1" d="m540.76-.48c110.92,0,221.84-.05,332.76.03,37.99.03,74.94,5.44,108.14,25.33,67.09,40.19,98.91,101.43,99.24,177.91.97,225.09.51,450.19.19,675.28-.05,38.81-7.37,76.11-29.36,109.4-34.43,52.12-82.43,82.55-144.37,90.06-19.37,2.35-39.08,2.61-58.64,2.63-213.5.17-427.01-.27-640.51.33-67.33.19-122.67-23.25-165.08-75.87C13.41,967.72.4,924.63.31,878.08-.13,648.4-1.51,418.7.86,189.05,1.9,88.43,85.42,8.17,173.05,1.8c16.62-1.21,33.3-2.15,49.95-2.18,105.92-.19,211.84-.1,317.75-.1ZM90.2,329.78c0,6.03,0,10.54,0,15.05,0,178-.01,356,0,534,0,66.6,44.78,111.38,111.34,111.38,226.44.01,452.88.01,679.33.02,67.77,0,110.27-42.2,110.29-109.73.04-178.83.02-357.67.02-536.5,0-4.44,0-8.87,0-14.22H90.2Z"/>
  <path class="cls-1" d="m615.4,667.33c0,28.24-.02,54.81.01,81.38.01,8.34.62,16.7.16,25-1.07,19.47-14.73,33.79-33.68,35.95-15.44,1.76-33.14-10.03-38.19-26.41-2.05-6.64-2.87-13.9-2.9-20.88-.24-54.61-.15-109.22-.15-163.83,0-34.46.01-68.92.03-103.37.01-27.49,20.36-47.99,44.01-44.36,12.45,1.91,28,16.6,28.5,29.08,1.32,33.28,2.13,66.61,2.18,99.91.01,10.29,2.58,13.54,13.21,13.29,30.84-.73,61.75-1.09,92.56.15,13.5.55,15.88-4.05,15.53-16.07-.79-27.49-.67-55.03.01-82.53.21-8.49,1.78-17.75,5.61-25.18,6.83-13.27,19.34-19.87,34.25-18.21,15.84,1.76,26.69,11.43,31.57,26.61,2,6.22,2.72,13.09,2.73,19.67.17,87.96.19,175.92.04,263.88-.03,15.33-2.81,30.44-15.89,40.25-11.21,8.4-23.92,10.92-37.52,3.83-14.52-7.57-21.29-19.59-21.45-35.37-.3-30.01-.58-60.03.13-90.03.25-10.75-3.33-13.19-13.5-13.01-34.93.6-69.88.23-107.25.23Z"/>
  <path class="cls-1" d="m390.54,525.51c0,36.78,0,72.98,0,109.19,0,43.24-.04,86.48,0,129.72.01,14.46-3.91,27.16-15.76,36.41-10.54,8.23-22.09,11.92-34.91,5.96-12.38-5.75-21.34-14.52-22.4-29.13-.61-8.3-1.63-16.6-1.64-24.9-.05-71.71-.13-143.41.39-215.12.08-10.44-2.79-13.74-13.27-13.19-17.47.91-35.03.73-52.53.37-21.19-.44-37.94-15.17-39.78-34.19-1.7-17.53,12.86-34.8,33.29-39.24,4.04-.88,8.23-1.46,12.36-1.47,60.47-.09,120.95-.39,181.42.3,8.6.1,18.14,3.56,25.48,8.22,11.85,7.53,18.52,19.25,15.69,34.08-3.12,16.32-12.92,27.84-29.44,29.93-18.89,2.4-38.13,2.11-58.9,3.07Z"/>
</svg>